<?xml version="1.0" encoding="UTF-8"?>
<svg id="Laag_1" data-name="Laag 1" xmlns="http://www.w3.org/2000/svg" viewBox="0 0 554.88 830.42">
  <defs>
    <style>
      .cls-1 {
        fill: #3f3f2c;
      }
    </style>
  </defs>
  <g id="Group_12084" data-name="Group 12084">
    <path id="Path_12487" data-name="Path 12487" class="cls-1" d="M306.08,755.37c-48.58,38.81-101.49-59.46-43.31-72.75,54.17-12.37,67.44,53.49,43.31,72.75"/>
    <path id="Path_12488" data-name="Path 12488" class="cls-1" d="M273.87,2.11c54.42-8.94,43.48,73.55,10.45,77.72-47.1,5.93-58.43-69.82-10.45-77.72"/>
    <path id="Path_12489" data-name="Path 12489" class="cls-1" d="M498.9,638.22c-28.65-17.54-36.23-50.43-54.38-74.99-28.05-37.96-99.16-31.05-127.17-72.74-17.05-25.32-21.03-81.37-23.31-112.45-.95-12.94-2.28-41.24-1.55-45.68,7.25-53.88,50.73-43.61,99.31-76.08,77.78-51.99,63.15-133.72,112.87-197.87,10.51-13.57,31.39-23.76,31.18-43.02-.61-4.76-2.04-9.37-4.25-13.63-16.3-11.21-62.28,34.47-78.47,44.41-20.57,12.63-44.68,20.82-65.3,33.07-51.01,30.38-95.44,80.96-110.41,139.54-14.95-58.57-59.38-109.16-110.39-139.53-20.57-12.25-44.68-20.44-65.3-33.07C85.56,36.23,39.59-9.45,23.28,1.76c-2.2,4.25-3.64,8.86-4.25,13.61-.22,19.25,20.66,29.44,31.18,43.04,49.72,64.17,35.06,145.91,112.87,197.89,48.58,32.47,92.05,22.2,99.3,76.1,1.64,7.63,2.83,23.65,3.24,27.91,3.9,40.56-3.73,105.67-30.57,136.91-26.2,30.49-77.87,27.02-109.48,52.37-30.03,24.04-34.93,77.43-74.71,89.9-17.25,5.41-45.73-.16-50.42,24.4-3.63,19.02,16.04,31.89,32.75,32.63,38.23,1.7,70.04-61.41,96.3-84.25,32.9-28.62,78.78-42.23,117.27-61.05-11.82,55.82-79.39,78.09-92.34,133.04-7.14,30.33.25,48.02-21.41,76.6-12.55,16.56-40.73,27.84-29.23,52.98,11.64,25.43,39.1,8.46,54.22-4.47,33.3-28.48,26.63-69.47,38.91-106.15,14.39-42.99,60.35-70.33,83.24-108.86,14.59,39.18,69.16,53.2,84.94,87.52,11.09,24.13,10.28,57.05,17.83,84.09,3.04,10.86,17.98,51.4,24.42,57.91,9.56,9.62,39.87,8.42,49.07-2.29,24.06-28.03-26.62-72.53-36.2-100.74-7.71-22.68-3.28-46.89-13.06-69.28-7.15-16.39-78.4-80.95-74.1-84.63,25.62,7.32,58.65,11.21,80.34,27.43,32.51,24.33,35.96,82.8,80.17,104.08,21.47,10.31,51.55,10.92,60.06-15.2,9.52-29.19-37.12-34.27-54.72-45.03M172.57,219.25c-65.56-40.73-58.83-98.5-94.74-158.95,88.31,36.53,182.71,98.72,184.85,204.51-26.31-21.93-61.4-27.72-90.11-45.56M477.04,60.3c-35.9,60.46-29.17,118.23-94.74,158.95-28.71,17.84-63.8,23.63-90.11,45.56,2.14-105.8,96.54-167.98,184.85-204.51"/>
  </g>
</svg>